    <svg xmlns="http://www.w3.org/2000/svg" width="57" height="25" viewBox="0 0 57 25" fill="none">
      <path
        fillRule="evenodd"
        clipRule="evenodd"
        d="M28.5 4.24596C30.9532 4.24596 32.9521 6.26944 32.9521 8.74979V16.2147C32.9521 19.5543 35.6334 22.2717 38.9325 22.2717H48.6885C51.5267 22.2717 53.8341 19.93 53.8341 17.0613C53.8341 14.1882 51.5267 11.8495 48.6885 11.8495H46.4334C44.4389 11.8495 42.814 10.2061 42.814 8.19231C42.814 6.1651 44.4389 4.53141 46.4334 4.53141H54.2022C54.6329 4.53141 54.9723 4.18485 54.9723 3.75481C54.9723 3.33074 54.6329 2.98045 54.2022 2.98045H46.4334C43.5915 2.98045 41.2863 5.31621 41.2863 8.19231C41.2863 11.0632 43.5915 13.3989 46.4334 13.3989H48.6885C50.683 13.3989 52.3064 15.0423 52.3064 17.0613C52.3064 19.0729 50.683 20.7215 48.6885 20.7215H38.9325C36.4772 20.7215 34.4798 18.6995 34.4798 16.2147V8.74979C34.4798 5.41384 31.7998 2.69649 28.5 2.69649C26.2066 2.69649 24.2129 4.01194 23.2079 5.93853C22.161 4.16547 20.2512 2.98045 18.0711 2.98045H8.31299C5.47037 2.98045 3.16961 5.31621 3.16961 8.19231C3.16961 11.0632 5.47037 13.3989 8.31299 13.3989H10.5718C12.5611 13.3989 14.1838 15.0423 14.1838 17.0613C14.1838 19.0729 12.5611 20.7215 10.5718 20.7215H1.26201C0.837935 20.7215 0.5 21.0703 0.5 21.4921C0.5 21.9214 0.837935 22.2717 1.26201 22.2717H10.5718C13.4078 22.2717 15.7166 19.93 15.7166 17.0613C15.7166 14.1882 13.4078 11.8495 10.5718 11.8495H8.31299C6.31704 11.8495 4.69658 10.2061 4.69658 8.19231C4.69658 6.1651 6.31704 4.53141 8.31299 4.53141H18.0711C20.5265 4.53141 22.5195 6.55191 22.5195 9.03225V24.1946C22.5195 24.6164 22.8663 24.9682 23.2881 24.9682C23.7107 24.9682 24.0538 24.6164 24.0538 24.1946V8.74979C24.0538 6.26944 26.0483 4.24596 28.5 4.24596ZM54.2179 11.4679C52.7403 9.97579 50.7782 9.15149 48.6887 9.15149H46.4336C45.9102 9.15149 45.4861 8.71922 45.4861 8.1923C45.4861 7.6609 45.9102 7.22714 46.4336 7.22714H54.2024C54.6331 7.22714 54.9725 6.88281 54.9725 6.45278C54.9725 6.03094 54.6331 5.68363 54.2024 5.68363H46.4336C45.0642 5.68363 43.9525 6.80828 43.9525 8.1923C43.9525 9.5711 45.0642 10.7025 46.4336 10.7025H48.6887C50.3696 10.7025 51.9451 11.3613 53.1334 12.562C54.3217 13.7686 54.9725 15.3598 54.9725 17.0613C54.9725 20.5687 52.1535 23.4202 48.6887 23.4202H38.9328C35.0049 23.4202 31.8111 20.1871 31.8111 16.2147V8.74978C31.8111 6.89921 30.3276 5.39595 28.5002 5.39595C26.6758 5.39595 25.1916 6.89921 25.1916 8.74978V24.1945C25.1916 24.6164 25.531 24.9682 25.9543 24.9682C26.3784 24.9682 26.72 24.6164 26.72 24.1945V8.74978C26.72 7.75705 27.5203 6.94467 28.5002 6.94467C29.4839 6.94467 30.282 7.75705 30.282 8.74978V16.2147C30.282 21.0427 34.1642 24.9682 38.9328 24.9682H48.6887C53.0009 24.9682 56.5003 21.4191 56.5003 17.0613C56.5003 14.9454 55.6889 12.9577 54.2179 11.4679ZM18.0711 5.68367H8.31299C6.9399 5.68367 5.8326 6.80832 5.8326 8.19233C5.8326 9.57113 6.9399 10.7025 8.31299 10.7025H10.5718C14.0329 10.7025 16.849 13.5503 16.849 17.0614C16.849 20.5687 14.0329 23.4202 10.5718 23.4202H1.26201C0.837935 23.4202 0.5 23.7638 0.5 24.1946C0.5 24.6164 0.837935 24.9682 1.26201 24.9682H10.5718C14.8781 24.9682 18.387 21.4191 18.387 17.0614C18.387 12.6947 14.8781 9.15153 10.5718 9.15153H8.31299C7.79026 9.15153 7.35883 8.71926 7.35883 8.19233C7.35883 7.66094 7.79026 7.22718 8.31299 7.22718H18.0711C19.0503 7.22718 19.8521 8.03582 19.8521 9.03228V24.1946C19.8521 24.6164 20.1945 24.9682 20.6178 24.9682C21.0419 24.9682 21.385 24.6164 21.385 24.1946V9.03228C21.385 7.18097 19.8985 5.68367 18.0711 5.68367ZM10.5718 18.0183H1.26201C0.837935 18.0183 0.5 18.3671 0.5 18.7926C0.5 19.2227 0.837935 19.5692 1.26201 19.5692H10.5718C11.936 19.5692 13.0514 18.4416 13.0514 17.0613C13.0514 15.6758 11.936 14.5512 10.5718 14.5512H8.31299C4.8453 14.5512 2.02623 11.6997 2.02623 8.19229C2.02623 4.67971 4.8453 1.8297 8.31299 1.8297H18.0711C19.9949 1.8297 21.823 2.61077 23.1564 3.9918C24.5103 2.43488 26.4444 1.54798 28.5 1.54798C32.4271 1.54798 35.6195 4.77884 35.6195 8.74977V16.2147C35.6195 18.0667 37.1037 19.5692 38.9325 19.5692H48.6885C50.0579 19.5692 51.1652 18.4416 51.1652 17.0613C51.1652 15.6758 50.0579 14.5512 48.6885 14.5512H46.4334C42.9686 14.5512 40.1481 11.6997 40.1481 8.19229C40.1481 4.67971 42.9686 1.8297 46.4334 1.8297H54.2022C54.6329 1.8297 54.9723 1.48463 54.9723 1.05608C54.9723 0.62903 54.6329 0.281722 54.2022 0.281722H46.4334C42.1249 0.281722 38.6204 3.82933 38.6204 8.19229C38.6204 12.55 42.1249 16.1014 46.4334 16.1014H48.6885C49.2156 16.1014 49.6397 16.5262 49.6397 17.0613C49.6397 17.586 49.2156 18.0183 48.6885 18.0183H38.9325C37.946 18.0183 37.1464 17.2148 37.1464 16.2147V8.74977C37.1464 3.92547 33.2701 0 28.5 0C26.5136 0 24.6207 0.677474 23.1004 1.91392C21.6493 0.863052 19.8955 0.281722 18.0711 0.281722H8.31299C4.00377 0.281722 0.5 3.82933 0.5 8.19229C0.5 12.55 4.00377 16.1014 8.31299 16.1014H10.5718C11.0923 16.1014 11.5186 16.5262 11.5186 17.0613C11.5186 17.586 11.0923 18.0183 10.5718 18.0183Z"
        fill="black"
      />
    </svg>